<?xml version="1.0" encoding="UTF-8" standalone="no"?>
<!-- Created with Inkscape (http://www.inkscape.org/) -->

<svg
   xmlns:dc="http://purl.org/dc/elements/1.1/"
   xmlns:cc="http://creativecommons.org/ns#"
   xmlns:rdf="http://www.w3.org/1999/02/22-rdf-syntax-ns#"
   xmlns:svg="http://www.w3.org/2000/svg"
   xmlns="http://www.w3.org/2000/svg"
   xmlns:sodipodi="http://sodipodi.sourceforge.net/DTD/sodipodi-0.dtd"
   xmlns:inkscape="http://www.inkscape.org/namespaces/inkscape"
   width="163.84801"
   height="220.40199"
   viewBox="0 0 163.848 220.40199"
   id="svg5269"
   version="1.1"
   inkscape:version="0.91 r13725"
   sodipodi:docname="logo.svg">
  <defs
     id="defs5271">
    <clipPath
       clipPathUnits="userSpaceOnUse"
       id="clipPath18">
      <path
         d="m 315.9017,294.7465 1182.7196,0 0,783.3594 -1182.7196,0 0,-783.3594 z"
         id="path20"
         inkscape:connector-curvature="0"
         style="clip-rule:evenodd" />
    </clipPath>
  </defs>
  <sodipodi:namedview
     id="base"
     pagecolor="#ffffff"
     bordercolor="#666666"
     borderopacity="1.0"
     inkscape:pageopacity="0.0"
     inkscape:pageshadow="2"
     inkscape:zoom="1.979899"
     inkscape:cx="125.1884"
     inkscape:cy="138.37464"
     inkscape:document-units="px"
     inkscape:current-layer="layer1"
     showgrid="false"
     units="px"
     inkscape:window-width="1920"
     inkscape:window-height="1024"
     inkscape:window-x="0"
     inkscape:window-y="28"
     inkscape:window-maximized="1" />
  <metadata
     id="metadata5274">
    <rdf:RDF>
      <cc:Work
         rdf:about="">
        <dc:format>image/svg+xml</dc:format>
        <dc:type
           rdf:resource="http://purl.org/dc/dcmitype/StillImage" />
        <dc:title></dc:title>
      </cc:Work>
    </rdf:RDF>
  </metadata>
  <g
     inkscape:label="Layer 1"
     inkscape:groupmode="layer"
     id="layer1"
     transform="translate(0,-831.96014)">
    <path
       style="opacity:1;fill:#000000;fill-opacity:1;fill-rule:nonzero;stroke:none;stroke-width:0.30000001;stroke-linecap:butt;stroke-linejoin:miter;stroke-miterlimit:4;stroke-dasharray:none;stroke-dashoffset:0;stroke-opacity:0.37647059"
       d="M 7.5761433,974.83295 C 1.5839767,959.16871 10.198132,942.04384 17.172593,925.08294 l 1.010149,-87.36917 29.420482,0.55751 0.451758,62.40979 18.997693,-8.94126 0.141942,-54.28548 28.670229,0.385 0.821211,52.86109 18.640603,7.36459 0.69497,-60.09619 29.9291,0.75191 1.36806,86.42038 c 6.52403,16.19479 14.91229,32.20315 8.49724,49.69184 -10.97824,45.04195 -33.5369,58.33625 -68.690374,73.74105 C 26.295712,1039.7421 8.7171449,987.13937 7.5761433,974.83295 Z"
       id="rect4136"
       inkscape:connector-curvature="0"
       sodipodi:nodetypes="cccccccccccccccc" />
    <path
       d="m 29.348168,875.04686 c 0.567,0.063 1.0392,0.063 1.6696,0.063 2.6143,0 4.9766,-1.1335 4.9766,-5.5435 l 0,-16.56637 -3.465,0 0,16.81875 c 0,1.70037 -0.8812,2.11 -1.9842,2.11 -0.3778,0 -0.8193,0 -1.197,-0.0312 l 0,3.14937 z m 53.470598,-21.98412 -5.2287,0 0,22.04712 5.4488,0 c 3.4647,0 5.26,-1.8265 5.26,-5.22775 l 0,-1.79537 c 0,-2.33113 -0.7246,-3.9685 -2.5831,-4.69313 l 0,-0.0634 c 1.5439,-0.724 2.2363,-2.14125 2.2363,-4.40862 l 0,-0.78738 c 0,-3.4015 -1.5428,-5.0715 -5.1333,-5.0715 z m -0.2214,12.12587 c 1.5754,0 2.2369,0.63038 2.2369,2.67738 l 0,1.9215 c 0,1.63775 -0.6304,2.17312 -1.7954,2.17312 l -1.9842,0 0,-6.772 1.5427,0 z m 0.1269,-8.97625 c 1.228,0 1.7631,0.6935 1.7631,2.26775 l 0,1.2285 c 0,1.76375 -0.787,2.33075 -2.0785,2.33075 l -1.3542,0 0,-5.827 1.6696,0 z m 46.019004,-3.14962 -4.8189,0 0,22.04712 3.0239,0 0,-15.59012 0.063,0 2.5194,15.59012 3.2757,0 2.3312,-15.8105 0.062,0 0,15.8105 3.2757,0 0,-22.04712 -4.8185,0 -2.3311,15.65325 -0.063,0 -2.5196,-15.65325 z m -49.174004,100.873 c -0.8536,0.86775 -1.3606,1.40137 -2.4236,2.07425 0.529,0.83587 0.7724,2.16175 2.5352,3.89725 l 2.132,1.61612 c 0.2874,0.16438 0.4649,0.213 0.7098,0.41638 0.7129,-0.613 2.6444,-1.21038 4.2845,-4.01525 0.208,-0.3555 0.3745,-0.61088 0.5432,-0.96738 0.1719,-0.36325 0.2654,-0.72175 0.4547,-1.03112 -1.0982,-0.9145 -0.9809,-0.58325 -2.4567,-2.03563 -1.3471,-1.32625 -1.6493,-2.17312 -2.1405,-2.74425 -0.68,0.4305 -0.8546,0.43188 -1.5413,0.0125 l -0.9124,1.35525 c -0.3264,0.44438 -0.7055,0.9355 -1.1849,1.422 z m -8.0299,-0.3855 1.1113,0.93962 1.9074,-0.91312 c 1.2596,-0.71 2.6113,-1.96438 3.5007,-3.16063 0.2271,-0.305 0.3801,-0.62712 0.641,-0.90387 -0.2877,-0.271 -0.523,-0.39825 -0.9054,-0.76675 -0.5388,-0.52013 -0.1591,-0.0174 -0.8478,-0.82175 -0.3185,-0.37238 -0.6325,-0.6345 -0.8759,-0.95988 -1.3061,-1.74287 -1.8546,-2.752 -2.502,-4.79575 -0.2086,0.075 -0.9946,0.59238 -1.278,0.75463 -1.046,0.59962 -2.8425,1.23775 -3.97,1.46975 -0.2345,1.23775 0.086,3.40337 0.4844,4.55562 0.4082,1.18063 1.2615,3.002 2.233,4.10813 l 0.5013,0.494 z m 14.6088,-4.09675 c 0.2512,0.25787 0.4077,0.57112 0.6045,0.82975 1.1327,1.48925 2.825,2.907 4.5039,3.6355 0.3376,0.14637 0.7638,0.2675 1.0307,0.43087 1.0045,-1.0205 1.6976,-1.30537 2.7481,-3.23262 0.944,-1.73088 1.5223,-3.85438 1.518,-5.7915 0,-0.467 0.034,-0.70588 -0.1081,-1.15513 -3.0851,-0.585 -4.8656,-1.99837 -5.2826,-2.14125 -0.3579,1.19663 -0.8979,2.59875 -1.6903,3.802 -0.9832,1.4935 -1.9317,2.425 -3.3242,3.62238 z m -6.7075,-3.672 c 0.349,0.34375 1.1644,1.03325 1.4871,1.24512 0.2633,0.17325 0.4398,0.2945 0.7101,0.46 0.3207,0.19663 0.5099,0.23488 0.7738,0.45488 0.6935,-0.596 2.5522,-1.18313 4.1722,-3.82175 0.3739,-0.60813 0.6422,-1.11088 0.8778,-1.676 0.2387,-0.57338 0.395,-1.08113 0.5364,-1.67425 0.2636,-1.10163 0.3427,-1.19163 -0.072,-1.733 -2.1469,-2.80313 -2.4611,-3.78213 -3.3899,-6.716 -0.2987,0.18925 -2.0132,1.0715 -2.239,1.07325 -0.2265,10e-4 -1.9545,-0.8535 -2.256,-1.0375 l -0.5004,1.6735 c -0.5987,1.8525 -1.4782,3.36625 -2.7353,5.03012 -0.3895,0.5155 -0.4373,0.44463 -0.1273,1.67063 0.3448,1.36212 0.6934,2.13175 1.4244,3.32787 0.2696,0.44225 0.9326,1.32413 1.338,1.72313 z m 11.7514,-8.18363 c 1.9682,1.9375 4.2137,3.17763 6.8332,3.37575 0.3529,0.0269 0.6279,0.0309 0.9641,0.0946 0.9585,-1.01838 1.980804,-3.9065 2.044204,-5.34613 0.014,-0.31537 0.058,-0.46175 0.061,-0.77112 0.016,-1.425 -0.2482,-3.25063 -0.804,-4.61725 -0.849004,-2.08775 -0.383404,-1.5115 -2.749304,-1.83113 -1.647,-0.2225 -2.6486,-0.45787 -4.2449,-0.83375 -0.3675,-0.0865 -0.6473,-0.18712 -1.0293,-0.27962 -0.3185,-0.0772 -0.8245,-0.22175 -1.0945,-0.38688 -0.4823,0.48963 -0.6588,0.79825 -1.0822,1.22875 -0.7395,0.75125 -2.2188,1.86563 -2.4877,2.13875 0.3274,1.5875 0.2555,1.22775 0.7494,2.69113 0.4567,1.35287 1.665,3.38075 2.8396,4.53687 z m -25.4644,3.7325 c 0.3012,-0.0616 0.5776,-0.0829 0.8982,-0.1055 4.6389,-0.325 8.7917,-4.539 9.9107,-8.90537 0.1647,-0.64288 0.2891,-1.243 0.4075,-1.86563 -0.1899,-0.17862 -0.6393,-0.512 -0.9047,-0.70762 -0.8503,-0.626 -1.9746,-1.8715 -2.7177,-2.60288 -0.8433,0.53363 -5.2086,1.4315 -6.2164,1.581 -2.56,0.38063 -2.004,-0.20087 -2.8219,1.82975 -0.957,2.3755 -1.0055,5.254 -0.1636,7.70675 0.277,0.80788 0.8929,2.33363 1.6079,3.0695 z m -3.5263,-15.57637 c 1.586,0.30087 6.8109,-0.68063 8.4668,-1.2235 0.2884,-0.0943 0.4506,-0.1105 0.7689,-0.21713 0.5535,-0.18575 1.0105,-0.38412 1.5371,-0.57087 0.5137,-0.1825 1.0286,-0.47125 1.5356,-0.65413 1.2919,2.04025 2.9154,3.757 4.9848,5.0865 0.5278,0.33875 2.402,1.52888 2.7733,1.5445 0.3002,0.0131 2.29,-1.259 2.7493,-1.58487 2.1901,-1.55413 3.5397,-2.93638 4.9035,-5.16763 0.8809,0.30188 1.8716,0.78838 3.0916,1.176 l 2.3163,0.578 c 0.2696,0.052 0.4737,0.1165 0.772,0.17675 1.0705,0.21475 4.941804,0.793 6.168804,0.54038 l -0.2163,-1.53963 c -0.337,-1.76525 -0.7457,-3.02175 -1.4182,-4.7405 -1.772004,-4.5295 -5.484204,-8.41075 -10.117104,-10.04537 -0.5737,-0.20225 -0.9114,-0.36425 -1.4811,-0.4985 -0.2881,-0.0676 -0.4755,-0.15238 -0.7725,-0.22288 -1.9441,-0.462 -2.684,-0.39012 -3.7934,-0.60025 l 0.097,-1.9275 c -0.1976,-1.94987 0.173,-0.92312 -0.451,-3.97775 -0.1282,-0.62825 -0.331,-1.52287 -0.8646,-2.04762 -0.6045,-0.59563 -1.6281,-0.624 -2.306,-0.117 l -0.3496,0.355 c -0.2907,0.40287 -0.4239,0.97512 -0.2609,1.71112 0.3795,1.71075 0.5989,1.777 0.6194,3.97663 0.01,0.62187 -0.032,1.3975 -0.1445,1.99175 l -1.6045,0.13112 c -0.5814,0.0726 -1.0283,0.1565 -1.6033,0.242 -0.557,0.0825 -1.0517,0.21538 -1.603,0.34475 -6.9711,1.63663 -11.6312,7.318 -13.2545,14.06588 -0.4514,1.8775 -0.3206,2.0395 -0.5439,3.21475 z M 7.4176579,970.16836 c -0.23563,-16.497 4.7005001,-28.48287 12.4994101,-41.20762 2.3498,-3.83388 1.496,-9.87063 1.496,-15.69725 0,-14.51975 -0.707,-60.80563 0.1593,-71.51913 l 23.906,-0.0475 0.1435,62.30263 24.526398,-7.63788 0.1301,-54.60275 23.9932,-0.0137 0.087,54.50175 24.553804,7.741 0.1438,-62.25625 23.8217,0.1225 0.1403,71.40925 c 0,8.00788 -1.1335,11.97288 1.9867,16.44138 7.7453,11.09262 12.0288,26.46737 12.0568,40.74937 L 7.4179579,970.16829 Z M 149.03267,831.96061 l -35.3271,0 c -7.97,0.70575 -7.2472,8.68313 -2.0028,11.08588 l -0.028,50.83837 -10.2756,-3.29562 -0.033,-48.09938 c 4.3955,-0.1 6.8624,-8.93937 0.7604,-10.52925 l -39.509304,0.015 c -1.5056,6.3e-4 -2.5047,1.22775 -2.9852,2.40088 -0.9935,2.031 -0.4342,4.22862 0.7781,5.6285 2.29,2.6455 2.431,-0.27388 2.4644,4.50425 l 0.067,46.0135 -10.602798,3.2615 0,-51.469 c 4.731298,0.065 7.682098,-8.63213 1.0813,-10.35488 l -40.24233,0 c -4.7583801,0.98075 -4.6052501,9.24663 0.9645,10.35488 l 0.045,43.154 c 0,7.61212 1.38887,36.52437 -1.6225,41.48037 -11.90375013,19.59175 -16.7633801,44.352 -8.3172501,69.42088 15.5660801,46.20321 66.5684781,67.74411 109.7064821,49.54891 43.1514,-18.2009 62.5786,-68.64516 41.0893,-112.51029 -3.7957,-7.74775 -5.2105,-6.07887 -5.1665,-16.48412 l 0.3295,-74.8085 c 4.0865,0.16625 7.2878,-9.11513 -1.1735,-10.15613 z m -116.040902,147.36113 -6.1399,0 0,25.88736 6.3985,0 c 4.0682,0 6.1764,-2.1447 6.1764,-6.13874 l 0,-2.10787 c 0,-2.73725 -0.8511,-4.65988 -3.0334,-5.51063 l 0,-0.0744 c 1.8128,-0.85 2.6263,-2.51438 2.6263,-5.17675 l 0,-0.9245 c 0,-3.994 -1.812,-5.9545 -6.0279,-5.9545 z m -0.2594,14.23812 c 1.8493,0 2.626,0.73975 2.626,3.14325 l 0,2.25638 c 0,1.92261 -0.7398,2.55151 -2.108,2.55151 l -2.33,0 0,-7.95114 1.812,0 z m 0.1485,-10.54 c 1.4422,0 2.0704,0.81425 2.0704,2.66288 l 0,1.44212 c 0,2.07138 -0.9245,2.73675 -2.441,2.73675 l -1.5899,0 0,-6.84175 1.9605,0 z m 21.6337,22.18924 c -0.4064,-0.962 -0.444,-1.886 -0.444,-3.1432 l 0,-3.99404 c 0,-2.70037 -0.6658,-4.623 -2.6993,-5.474 l 0,-0.0734 c 1.8118,-0.85075 2.6628,-2.5515 2.6628,-5.21438 l 0,-2.03387 c 0,-3.994 -1.812,-5.9545 -6.0279,-5.9545 l -6.1395,0 0,25.88739 4.0681,0 0,-10.53989 1.4056,0 c 1.8485,0 2.6628,0.88762 2.6628,3.29175 l 0,4.06734 c 0,2.1079 0.1477,2.515 0.3696,3.1808 l 4.1418,0 z m -6.6193,-22.18924 c 1.4421,0 2.0704,0.81425 2.0704,2.66288 l 0,2.5515 c 0,2.07137 -0.9241,2.73725 -2.4406,2.73725 l -1.5903,0 0,-7.95163 1.9605,0 z m 12.906498,0 7.026,0 0,-3.69812 -11.0944,0 0,25.88736 11.0944,0 0,-3.6981 -7.026,0 0,-7.58164 5.5839,0 0,-3.69812 -5.5839,0 0,-7.21138 z m 20.0445,22.18924 5.3996,0 2.8835,-25.88736 -3.5492,0 -2.0711,20.56187 -0.074,0 -1.997,-20.56187 -3.92,0 -1.9225,20.41412 -0.074,0 -2.1448,-20.41412 -3.9571,0 2.8846,25.88736 5.5839,0 1.4425,-13.79399 0.074,0 1.4425,13.79399 z m 16.0494,0 10.761704,0 0,-3.6981 -6.6932,0 0,-22.18926 -4.068504,0 0,25.88736 z m 21.561404,-25.88736 -5.9545,0 -4.1418,25.88736 3.7346,0 0.7034,-4.6966 4.9925,0 0.7023,4.6966 4.105,0 -4.1415,-25.88736 z m -3.2177,4.58575 0.073,0 1.9237,13.0915 -3.9207,0 1.9237,-13.0915 z m 15.385,-4.58575 -6.1398,0 0,25.88736 6.3985,0 c 4.0681,0 6.176,-2.1447 6.176,-6.13874 l 0,-2.10787 c 0,-2.73725 -0.8508,-4.65988 -3.033,-5.51063 l 0,-0.0744 c 1.8127,-0.85 2.6262,-2.51438 2.6262,-5.17675 l 0,-0.9245 c 0,-3.994 -1.812,-5.9545 -6.0279,-5.9545 z m -0.2597,14.23812 c 1.8496,0 2.6264,0.73975 2.6264,3.14325 l 0,2.25638 c 0,1.92261 -0.7403,2.55151 -2.108,2.55151 l -2.33,0 0,-7.95114 1.8116,0 z m 0.1489,-10.54 c 1.4421,0 2.0703,0.81425 2.0703,2.66288 l 0,1.44212 c 0,2.07138 -0.9245,2.73675 -2.441,2.73675 l -1.5898,0 0,-6.84175 1.9605,0 z m -63.030904,28.41914 -5.9148,0 0,25.5582 4.0167,0 0,-9.6031 1.8981,0 c 4.0167,0 5.9882,-2.2269 5.9882,-6.3159 l 0,-3.3226 c 0,-4.0896 -1.9715,-6.3166 -5.9882,-6.3166 z m 0,3.651 c 1.2785,0 1.9719,0.5846 1.9719,2.4095 l 0,3.8339 c 0,1.8258 -0.6934,2.4097 -1.9719,2.4097 l -1.8981,0 0,-8.6531 1.8981,0 z m 7.6685,-3.651 0,19.4602 c 0,4.09 2.0441,6.4265 5.9875,6.4265 3.9432,0 5.9881,-2.3365 5.9881,-6.4265 l 0,-19.4602 -3.7974,0 0,19.7164 c 0,1.8251 -0.8028,2.4825 -2.0813,2.4825 -1.2773,0 -2.0809,-0.6574 -2.0809,-2.4825 l 0,-19.7164 -4.016,0 z m 20.7757,0 -6.0615,0 0,25.5582 6.317,0 c 4.016404,0 6.097804,-2.1175 6.097804,-6.0608 l 0,-2.081 c 0,-2.7024 -0.8401,-4.6007 -2.994504,-5.4408 l 0,-0.073 c 1.789704,-0.8395 2.592604,-2.4825 2.592604,-5.1112 l 0,-0.9124 c 0,-3.9434 -1.789,-5.8788 -5.951404,-5.8788 z m -0.2561,14.057 c 1.8259,0 2.5926,0.7302 2.5926,3.1032 l 0,2.2277 c 0,1.8982 -0.7302,2.5193 -2.081,2.5193 l -2.3002,0 0,-7.8502 1.7886,0 z m 0.1466,-10.406 c 1.4242,0 2.0442,0.8036 2.0442,2.6287 l 0,1.4242 c 0,2.0448 -0.9124,2.7021 -2.4098,2.7021 l -1.5696,0 0,-6.755 1.9352,0 z"
       style="fill:#d9dada;fill-opacity:1;fill-rule:evenodd;stroke:none"
       id="path28"
       inkscape:connector-curvature="0" />
  </g>
</svg>
